<?xml version="1.0" encoding="UTF-8"?>
<svg xmlns="http://www.w3.org/2000/svg" width="2480" height="3508" viewBox="0 0 2480 3508">
  <rect width="2480" height="3508" fill="#ffffff"/>
  <rect x="120" y="120" width="2240" height="3268" rx="48" fill="#f8fafc" stroke="#cbd5e1" stroke-width="4"/>

  <!-- Header compatto -->
  <text x="1240" y="300" text-anchor="middle" font-family="Arial, Helvetica, sans-serif" font-size="88" font-weight="800" fill="#0f172a">7° Torneo di Basket Longara</text>
  <text x="1240" y="390" text-anchor="middle" font-family="Arial, Helvetica, sans-serif" font-size="48" font-weight="600" fill="#334155">Bacheca ufficiale · 28 giugno – 5 luglio 2026</text>

  <!-- QR centrato e ingrandito (49 × 38 = 1862 px) -->
  <g transform="translate(309, 780)">
    <rect x="-36" y="-36" width="1934" height="1934" rx="24" fill="#ffffff" stroke="#cbd5e1" stroke-width="6"/>
    <g transform="scale(38)">
      <rect x="0" y="0" width="49" height="49" fill="#ffffff"/>
      <path stroke="#000000" d="M4 4.5h7m4 0h1m1 0h1m6 0h1m2 0h1m1 0h1m2 0h1m1 0h3m1 0h7M4 5.5h1m5 0h1m2 0h1m1 0h2m3 0h1m1 0h4m2 0h2m3 0h2m3 0h1m5 0h1M4 6.5h1m1 0h3m1 0h1m2 0h1m3 0h1m2 0h2m2 0h5m2 0h1m2 0h2m2 0h1m1 0h3m1 0h1M4 7.5h1m1 0h3m1 0h1m5 0h1m2 0h3m2 0h2m4 0h1m1 0h1m1 0h2m2 0h1m1 0h3m1 0h1M4 8.5h1m1 0h3m1 0h1m1 0h1m2 0h2m1 0h1m3 0h1m4 0h1m2 0h4m1 0h1m2 0h1m1 0h3m1 0h1M4 9.5h1m5 0h1m4 0h1m2 0h2m5 0h3m1 0h2m1 0h2m1 0h2m1 0h1m5 0h1M4 10.5h7m1 0h1m1 0h1m1 0h1m1 0h1m1 0h1m1 0h1m1 0h1m1 0h1m1 0h1m1 0h1m1 0h1m1 0h1m1 0h1m1 0h7M12 11.5h2m1 0h2m3 0h6m2 0h1m3 0h2M6 12.5h2m2 0h3m1 0h1m2 0h1m6 0h1m1 0h1m1 0h2m1 0h1m1 0h3m1 0h2m1 0h1M4 13.5h3m1 0h1m7 0h4m3 0h3m1 0h1m1 0h1m2 0h5m1 0h3m1 0h1m1 0h1M6 14.5h1m1 0h1m1 0h4m2 0h2m1 0h2m1 0h3m2 0h1m1 0h1m2 0h1m1 0h1m2 0h1m2 0h1m1 0h2M4 15.5h1m2 0h1m1 0h1m1 0h1m3 0h1m2 0h1m1 0h4m1 0h1m1 0h2m7 0h2m1 0h2m2 0h1M4 16.5h1m2 0h1m1 0h2m2 0h2m1 0h2m2 0h1m1 0h1m2 0h1m1 0h1m1 0h5m1 0h1m5 0h2m1 0h1M4 17.5h1m1 0h2m1 0h1m2 0h4m1 0h2m2 0h3m9 0h1m1 0h1m2 0h1m3 0h1m1 0h1M5 18.5h3m2 0h1m1 0h5m6 0h7m3 0h4m1 0h2m1 0h1m1 0h2M4 19.5h1m3 0h2m2 0h3m1 0h1m3 0h2m3 0h1m1 0h2m2 0h1m3 0h1m2 0h1m2 0h1m1 0h2M4 20.5h2m1 0h1m2 0h3m5 0h1m1 0h2m2 0h2m3 0h1m4 0h1m5 0h1m2 0h2M5 21.5h3m1 0h1m1 0h5m1 0h4m1 0h1m1 0h1m3 0h1m2 0h1m1 0h2m1 0h2m1 0h1m3 0h1M6 22.5h2m2 0h4m2 0h1m1 0h5m1 0h4m1 0h1m1 0h3m2 0h1m3 0h1M4 23.5h2m1 0h2m6 0h1m2 0h1m1 0h5m1 0h1m1 0h2m2 0h1m3 0h4m1 0h3M4 24.5h3m3 0h1m1 0h1m4 0h2m1 0h1m1 0h4m1 0h1m1 0h1m2 0h1m1 0h10M4 25.5h3m2 0h1m1 0h1m2 0h1m1 0h2m1 0h3m4 0h4m2 0h1m1 0h3m1 0h3m2 0h2M4 26.5h2m3 0h2m1 0h2m1 0h4m2 0h1m1 0h1m1 0h1m3 0h1m3 0h1m6 0h2m1 0h1M6 27.5h1m2 0h1m2 0h2m3 0h4m2 0h4m4 0h1m2 0h1m1 0h1m1 0h3m2 0h2M5 28.5h1m1 0h2m1 0h3m3 0h4m2 0h1m2 0h1m1 0h1m3 0h1m1 0h1m1 0h1m6 0h1M7 29.5h1m1 0h1m1 0h6m4 0h1m1 0h2m4 0h8m1 0h2m1 0h2m1 0h1M4 30.5h1m5 0h2m3 0h5m1 0h1m2 0h5m5 0h3m1 0h1m1 0h2m2 0h1M4 31.5h1m2 0h1m5 0h1m1 0h1m1 0h2m3 0h2m4 0h3m3 0h3m1 0h4m1 0h1M7 32.5h1m1 0h4m2 0h1m7 0h4m1 0h4m3 0h1m1 0h1m2 0h2m1 0h1M5 33.5h1m1 0h1m1 0h1m1 0h1m2 0h5m1 0h2m3 0h3m1 0h1m6 0h1m2 0h1m2 0h1M4 34.5h1m1 0h1m1 0h5m2 0h1m1 0h1m2 0h3m1 0h2m3 0h2m2 0h2m1 0h5m2 0h1M6 35.5h2m3 0h3m4 0h1m1 0h1m3 0h1m1 0h2m1 0h1m1 0h3m2 0h1m1 0h2m1 0h3M5 36.5h1m1 0h1m2 0h1m2 0h1m2 0h1m1 0h3m1 0h2m3 0h2m1 0h2m1 0h10M12 37.5h2m1 0h3m5 0h1m1 0h2m5 0h1m1 0h1m1 0h1m3 0h2m1 0h2M4 38.5h7m1 0h1m2 0h2m2 0h3m1 0h2m1 0h1m5 0h2m1 0h2m1 0h1m1 0h3M4 39.5h1m5 0h1m2 0h2m5 0h1m1 0h2m1 0h1m1 0h2m2 0h1m2 0h1m1 0h1m3 0h1m3 0h1M4 40.5h1m1 0h3m1 0h1m2 0h1m3 0h7m3 0h2m1 0h1m3 0h1m1 0h7M4 41.5h1m1 0h3m1 0h1m1 0h3m1 0h2m2 0h1m1 0h3m1 0h1m3 0h5m1 0h1m3 0h1m2 0h2M4 42.5h1m1 0h3m1 0h1m1 0h1m1 0h1m3 0h2m7 0h1m1 0h1m2 0h2m2 0h1m2 0h1m1 0h1m2 0h1M4 43.5h1m5 0h1m2 0h1m4 0h2m3 0h5m1 0h2m1 0h1m3 0h2m2 0h2m1 0h1M4 44.5h7m2 0h2m1 0h1m4 0h2m1 0h3m4 0h1m2 0h3m1 0h1m4 0h1"/>
    </g>
  </g>

  <!-- Testi sotto il QR -->
  <text x="1240" y="2740" text-anchor="middle" font-family="Arial, Helvetica, sans-serif" font-size="76" font-weight="700" fill="#0f172a">Scansiona il QR code</text>
  <text x="1240" y="2840" text-anchor="middle" font-family="Arial, Helvetica, sans-serif" font-size="46" fill="#475569">Calendario, risultati, info e iscrizioni</text>
  <text x="1240" y="2920" text-anchor="middle" font-family="Arial, Helvetica, sans-serif" font-size="38" fill="#64748b">basket-playground.fly.dev/playground/showcase</text>

  <!-- Footer -->
  <text x="1240" y="3220" text-anchor="middle" font-family="Arial, Helvetica, sans-serif" font-size="44" font-weight="600" fill="#0f172a">Oratorio Il Tralcio · Longara</text>
  <text x="1240" y="3290" text-anchor="middle" font-family="Arial, Helvetica, sans-serif" font-size="36" fill="#64748b">@torneodilongara</text>
</svg>
